<?xml version="1.0" encoding="utf-8"?>
<!-- Generator: Adobe Illustrator 23.0.4, SVG Export Plug-In . SVG Version: 6.00 Build 0)  -->
<svg version="1.1" id="Layer_1" xmlns="http://www.w3.org/2000/svg" xmlns:xlink="http://www.w3.org/1999/xlink" x="0px" y="0px"
	 viewBox="0 0 337.5 59.2" style="enable-background:new 0 0 337.5 59.2;" xml:space="preserve">
<style type="text/css">
	.st0{enable-background:new    ;}
	.st1{fill:#1D1D1B;}
</style>
<title>logo</title>
<g class="st0">
	<path class="st1" d="M16.1,9.3C22,9.3,26.3,9,28.9,9c1.9,0,2.7,1,2.7,2.6l-0.6,5.9c-0.1,0.9-0.5,1.2-1,1.2c-0.4,0-0.9-0.3-1.2-0.9
		c-1.3-3-3.2-4.5-6.2-5.1c-1.3-0.4-5.1-0.6-7.1-0.6c-0.4,0-0.6,0.2-0.6,0.5l-0.4,10.3c0,1,0.4,1.5,1.5,1.5c1,0,4.4-0.1,5.3-0.3
		c1.9-0.2,3.7-0.5,5.2-1c0.4-0.1,0.8-0.2,1.1-0.2c0.5,0,0.7,0.3,0.7,0.9l-0.5,4.4c-0.1,0.6-0.3,1.1-1,1.1c-1.2,0-2.8-0.8-4.9-1.1
		c-1.8-0.5-4.1-0.5-6.2-0.5c-0.9,0-1.4,0.6-1.4,1.4L14,38.5c0,2.1,1,3.1,3.7,3.1c1.2,0,3.5-0.2,4.8-0.5c2.8-0.7,5.5-2.1,7.2-5.3
		c0.3-0.5,0.7-0.7,1.2-0.7c0.6,0,0.9,0.4,0.9,1.1l-0.4,6c-0.1,1.7-1.4,2.6-3.1,2.6c-0.9,0-8.3-0.4-12.8-0.4H1.6
		c-0.5,0-0.9-0.3-0.9-0.9c0-0.5,0.3-0.9,0.8-1.1c2.8-0.9,3-3.4,3.1-5.8l0.7-21c0-2-0.5-4-2.9-4.3c-0.4-0.1-0.7-0.4-0.7-0.9
		c0-0.6,0.4-1.1,0.9-1.1H16.1z"/>
</g>
<g class="st0">
	<path class="st1" d="M57.1,17.8c6.1,0,8.5,3.9,8.5,9.6l-0.4,9.9c0,2.6,0.2,4.6,2.2,5.1c0.5,0.1,0.8,0.4,0.8,1c0,0.6-0.5,1-1,1H53.3
		c-0.5,0-0.9-0.3-0.9-0.9c0-0.5,0.3-0.9,0.8-1.1c2.6-0.9,2.8-3.4,2.9-5.9l0.3-6.8c0-2.6-0.3-6.2-3.9-6.2c-3.9,0-4.6,4.3-4.7,8.3
		l-0.2,6.2c0,2.4,0.4,4,2.2,4.4c0.5,0.1,0.7,0.4,0.7,1c0,0.6-0.5,1-1,1H35.7c-0.5,0-0.9-0.3-0.9-0.9c0-0.5,0.3-0.9,0.8-1.1
		c2.5-1,2.8-3.5,2.9-5.9l0.4-9.7c0-2-1-3-3.5-3c-0.3-0.2-0.4-0.5-0.4-1c0-0.5,0.3-1.2,1.2-1.3c2.4-0.3,5.4-1.5,7.2-2.6
		c0.9-0.5,1.6-1,2.7-1c0.7,0,1.4,0.3,1.9,0.8L47.6,24c0,0.2,0.1,0.2,0.1,0.2s0.1-0.1,0.2-0.2C49.7,20.1,53.3,17.8,57.1,17.8z"/>
</g>
<g class="st0">
	<path class="st1" d="M94.2,20.2c1.8,0,4.4-1.1,5.4-3.1c0.2-0.4,0.5-0.6,0.9-0.6c1.1,0,2,3,2,4c0,1.6-1.3,2.6-3.7,2.6
		c-1.2,0-2-0.3-2.2-0.3c-0.1,0-0.1,0-0.1,0.1c0,0.1,1.3,2.2,1.3,4.7c0,3.1-1.4,6.3-4.5,8.6c-1.1,0.9-3.6,2.3-3.6,2.6
		c0,0.1,0.4,0.2,0.6,0.2c3.3,1,11.9,3.8,11.9,6.8c0,7.1-9.8,10.7-18.6,10.7c-7.9,0-14.8-2.7-14.8-8.1c0-4,4.1-6,9.3-7.1
		c3-0.6,4.6-1.2,6.3-2.4C83.6,39,83.1,39,82.5,39c-5.3,0-11.3-2.7-11.3-9.5c0-5.7,5.1-11.6,14.5-11.6C88.6,17.8,91.4,18.3,94.2,20.2
		z M91.9,48c0-1.5-4.9-4.1-8-5.1c-0.5-0.2-0.8-0.3-1.1-0.3c-0.3,0-0.7,0.3-1,0.5c-1.8,1.2-2.8,2.9-2.8,4.7c0,3.2,2.4,5.7,6.3,5.7
		C89.1,53.6,91.9,51.2,91.9,48z M79.1,26.2c0,4.1,2.6,9.5,7,9.5c2.7,0,3.6-2.2,3.6-4.8c0-4.1-2.9-9.5-7-9.5
		C80.1,21.4,79.1,23.7,79.1,26.2z"/>
	<path class="st1" d="M115.2,38c0,1.8,0.2,4.1,2.4,4.4c0.5,0.1,0.7,0.5,0.7,1c0,0.6-0.4,1-1,1h-14c-0.5,0-0.8-0.3-0.9-0.9
		c0-0.5,0.3-0.9,0.8-1.1c2.6-0.7,2.9-3.6,3-5.8l0.7-22c0-2-1-3-3.5-3c-0.3-0.2-0.5-0.5-0.5-1s0.3-1.1,1.2-1.2
		c2.4-0.4,5.3-1.6,7.1-2.7c0.9-0.5,1.7-1,2.7-1c0.7,0,1.7,0.3,2.2,0.8L115.2,38z"/>
	<path class="st1" d="M125.8,26.4c0-2.1-1.2-3-3.7-3c-0.3-0.2-0.5-0.6-0.5-1c0-0.5,0.3-1.2,1.2-1.3c2.4-0.3,5.6-1.6,7.5-2.7
		c0.9-0.5,1.6-0.9,2.6-0.9c0.7,0,1.8,0.3,2.2,0.8l-0.7,19.5c0,1.8,0.2,3.9,2.4,4.4c0.5,0.1,0.7,0.4,0.7,1c0,0.6-0.5,1-1,1h-14.1
		c-0.4,0-0.8-0.3-0.8-0.9c0-0.5,0.3-0.9,0.7-1.1c2.6-0.7,2.9-2.9,3-5.9L125.8,26.4z M135.6,9c0,3.3-2.1,5.2-5.3,5.2
		c-3.4,0-4.8-1.8-4.8-4.5c0-3.4,2-5.2,5.3-5.2C134.1,4.5,135.6,6.3,135.6,9z"/>
	<path class="st1" d="M162.4,23.5c0,1.2-0.2,2.6-0.3,3.7c0,0.5-0.3,0.7-0.9,0.7c-0.3,0-0.6-0.2-0.7-0.5c-2.2-3.3-6.3-5.6-10-5.6
		c-1.8,0-2.9,0.8-2.9,2c0,1.6,3.2,2.6,6.2,3.5c3.7,1.2,7.1,2.5,8.5,5.5c0.4,1,0.6,2,0.6,3.1c0,1.5-0.4,2.9-1.2,4
		c-2.3,3.4-7.4,5-12.1,5c-7-0.1-8.3-2.7-8.3-6.6c0-1,0-2.3,0.2-3.5c0-0.5,0.4-0.7,0.9-0.7c0.4,0,0.6,0.2,0.7,0.4
		c2.6,4,7.5,6.4,11.4,6.4c1.8,0,2.8-0.7,2.8-2c0-1.9-2.9-2.8-6-3.7c-3.5-1.1-7.1-2.6-8.5-5.6c-0.4-1-0.7-2-0.7-3.1
		c0-1.4,0.4-2.8,1.2-4c2.2-3.1,6.9-4.8,11.3-4.8C161.3,17.8,162.4,20.1,162.4,23.5z"/>
	<path class="st1" d="M195.9,27.3l-0.4,9.9c0,3.1,0.4,4.5,2.4,5.1c0.5,0.2,0.8,0.5,0.8,1c0,0.6-0.5,1-1,1h-14.1
		c-0.5,0-0.8-0.3-0.8-0.9c0-0.5,0.3-0.9,0.7-1.1c2.7-0.9,2.8-3.1,2.9-5.8l0.3-6.8c0-2.6-0.3-6.1-3.9-6.1c-4,0-4.6,4.1-4.7,8.1
		l-0.2,6.2c0,2.6,0.5,3.9,2.2,4.4c0.5,0.2,0.8,0.5,0.8,1c0,0.6-0.5,1-1,1h-13.9c-0.5,0-0.9-0.3-0.9-0.9c0-0.5,0.3-0.9,0.8-1.1
		c2.5-0.9,2.7-3.5,2.8-5.8l0.7-22c0-2-1-3-3.5-3c-0.3-0.2-0.5-0.5-0.5-1s0.3-1.1,1.1-1.2c2.4-0.4,5.4-1.6,7.2-2.7
		c0.9-0.5,1.7-1,2.7-1c0.7,0,1.6,0.2,2.1,0.8l-0.4,13.1c-0.1,3-0.2,4-0.3,4.5c0,0.1,0.1,0.2,0.1,0.2c0.1,0,0.1-0.1,0.1-0.1
		c1.9-4.1,5.5-6.3,9.3-6.3C193.6,17.8,195.9,21.7,195.9,27.3z"/>
	<path class="st1" d="M226.5,18.7l-0.3,5.4c0,0.2,0.1,0.2,0.1,0.2c0.1,0,0.1-0.1,0.2-0.2c1.7-3.3,5.5-6.5,8.2-6.5
		c2,0,2.3,2.7,2.3,6.7c0,2.1-0.4,4.1-1.9,4.1c-0.7,0-1.4-0.3-2-0.6c-1.3-0.6-2.9-1.9-4.4-1.9c-1.6,0-2.2,1.5-2.3,3.2l-0.3,7.4
		c0,3.5,1.8,5.1,5.9,5.7c0.4,0.1,0.7,0.4,0.7,1c0,0.6-0.5,1-1,1H214c-0.5,0-0.9-0.3-0.9-0.9c0-0.5,0.3-1,0.8-1.1
		c2.9-0.7,3.1-3.3,3.1-5.9l0.3-9.7c0-2-0.9-3-3.4-3c-0.3-0.2-0.5-0.5-0.5-1c0-0.5,0.3-1.2,1.2-1.3c2.3-0.3,5.3-1.5,7.2-2.6
		c0.8-0.5,1.6-1,2.6-1C225.3,17.9,226,18.1,226.5,18.7z"/>
	<path class="st1" d="M269.1,30c0,7.3-5.5,14.9-16.1,14.9c-9.3,0-13.3-5.7-13.3-12c0-7.3,5.6-15.1,16.1-15.1
		C264.9,17.8,269.1,23.7,269.1,30z M247.9,28.5c0,5.4,3.7,12.3,8.5,12.3c3.1,0,4.4-2.7,4.4-5.9c0-5.5-3.4-13-8.5-13
		C249,21.9,247.9,24.9,247.9,28.5z"/>
	<path class="st1" d="M293.7,23.5c0,1.2-0.2,2.6-0.3,3.7c0,0.5-0.3,0.7-0.9,0.7c-0.3,0-0.6-0.2-0.7-0.5c-2.2-3.3-6.3-5.6-10-5.6
		c-1.8,0-2.9,0.8-2.9,2c0,1.6,3.2,2.6,6.2,3.5c3.7,1.2,7.1,2.5,8.5,5.5c0.4,1,0.6,2,0.6,3.1c0,1.5-0.4,2.9-1.2,4
		c-2.3,3.4-7.4,5-12.1,5c-7-0.1-8.3-2.7-8.3-6.6c0-1,0-2.3,0.2-3.5c0-0.5,0.4-0.7,0.9-0.7c0.4,0,0.6,0.2,0.7,0.4
		c2.6,4,7.5,6.4,11.4,6.4c1.8,0,2.8-0.7,2.8-2c0-1.9-2.9-2.8-6-3.7c-3.5-1.1-7.1-2.6-8.5-5.6c-0.4-1-0.7-2-0.7-3.1
		c0-1.4,0.4-2.8,1.2-4c2.2-3.1,6.9-4.8,11.3-4.8C292.6,17.8,293.7,20.1,293.7,23.5z"/>
	<path class="st1" d="M324.2,25.9c0,1.9-1.1,3.6-3.8,4.3c-3.2,0.8-12.4,1.9-14.4,1.9c-0.2,0-0.3,0.1-0.3,0.4
		c0.3,0.9,0.6,1.6,1.2,2.4c1.9,2.6,5,3.8,8.3,3.8c2.9,0,5.7-1.1,7.9-3c0.2-0.2,0.4-0.3,0.7-0.3c0.4,0,0.8,0.3,0.8,0.7
		c0,0.1,0,0.3-0.1,0.4c-2,5.1-7.7,8.5-13.7,8.5c-7.2-0.1-12.9-4.6-12.9-12.2c0-8.8,7.2-14.9,15.6-14.9
		C320,17.8,324.2,21.6,324.2,25.9z M304.7,28.5c0,0.4,0.1,0.7,0.1,0.9c0.1,0.2,0.2,0.4,0.4,0.4c1.3,0,10.8-1.7,10.8-2.3
		c0-1.3-1.8-5.4-5.9-5.4C306.6,22,304.7,25,304.7,28.5z"/>
</g>
</svg>
