<svg id="Layer_1" data-name="Layer 1" xmlns="http://www.w3.org/2000/svg" viewBox="0 0 323.8 52.01"><defs><style>.cls-1{isolation:isolate;}.cls-2{fill:#c30b0b;}</style></defs><title>logo_red</title><g class="cls-1"><g class="cls-1"><path class="cls-2" d="M16.11,9.26C22,9.26,26.32,9,28.93,9a2.33,2.33,0,0,1,2.66,2.61L31,17.5c-.11.85-.48,1.17-1,1.17a1.39,1.39,0,0,1-1.17-.85,8.12,8.12,0,0,0-6.17-5.11,35.24,35.24,0,0,0-7.07-.64.57.57,0,0,0-.64.54l-.37,10.31c0,1,.42,1.49,1.49,1.49s4.41-.1,5.31-.26a25.24,25.24,0,0,0,5.22-1A4.32,4.32,0,0,1,27.65,23c.53,0,.75.26.75.85l-.54,4.41c-.05.59-.26,1.12-.95,1.12-1.17,0-2.77-.8-4.95-1.12a25.84,25.84,0,0,0-6.17-.53,1.38,1.38,0,0,0-1.43,1.38L14,38.45c0,2.13,1,3.14,3.72,3.14a24.72,24.72,0,0,0,4.78-.53,10.6,10.6,0,0,0,7.18-5.32A1.34,1.34,0,0,1,30.84,35c.59,0,.91.43.91,1.12l-.43,6c-.11,1.7-1.38,2.55-3.14,2.55-.9,0-8.35-.37-12.76-.37H1.6a.8.8,0,0,1-.86-.9,1,1,0,0,1,.8-1.07c2.77-.9,3-3.4,3.09-5.85l.74-20.95c0-2-.48-4-2.92-4.31a.83.83,0,0,1-.7-.9,1,1,0,0,1,.91-1.06Z" transform="translate(-0.74 -4.52)"/></g><g class="cls-1"><path class="cls-2" d="M57.06,17.76c6.12,0,8.46,3.94,8.46,9.58l-.37,9.94c0,2.55.16,4.63,2.23,5a.94.94,0,0,1,.8,1,1,1,0,0,1-1,1H53.34a.8.8,0,0,1-.85-.9,1.09,1.09,0,0,1,.8-1.07c2.55-.85,2.76-3.4,2.87-5.9l.27-6.75c0-2.61-.32-6.23-3.94-6.23-3.93,0-4.57,4.31-4.73,8.3l-.22,6.17c0,2.39.38,4,2.24,4.41a.89.89,0,0,1,.74,1,1,1,0,0,1-1,1H35.69a.82.82,0,0,1-.85-.9,1.08,1.08,0,0,1,.79-1.07c2.5-1,2.82-3.45,2.93-5.9l.37-9.73c0-2-1-3-3.51-3a1.16,1.16,0,0,1-.42-1,1.22,1.22,0,0,1,1.17-1.28,21.77,21.77,0,0,0,7.17-2.6,4.93,4.93,0,0,1,2.66-1,2.62,2.62,0,0,1,1.92.8L47.6,24c0,.16,0,.21.1.21s.11-.05.16-.16A10.24,10.24,0,0,1,57.06,17.76Z" transform="translate(-0.74 -4.52)"/></g><g class="cls-1"><path class="cls-2" d="M94.18,20.21a6.48,6.48,0,0,0,5.37-3.14,1,1,0,0,1,.85-.58c1.06,0,2,3,2,4,0,1.65-1.28,2.61-3.67,2.61a9.79,9.79,0,0,1-2.18-.32c-.06,0-.11,0-.11.1a10.44,10.44,0,0,1,1.33,4.68,10.64,10.64,0,0,1-4.47,8.56c-1.06.85-3.61,2.29-3.61,2.61a1,1,0,0,0,.58.21c3.3,1,11.91,3.78,11.91,6.81,0,7.07-9.84,10.74-18.61,10.74-7.87,0-14.84-2.71-14.84-8.14,0-4,4.15-6,9.31-7.12a15.22,15.22,0,0,0,6.28-2.39,11.36,11.36,0,0,1-1.81.1c-5.32,0-11.33-2.66-11.33-9.52,0-5.69,5.11-11.64,14.52-11.64A14.43,14.43,0,0,1,94.18,20.21ZM91.89,48c0-1.54-4.89-4.1-8-5.11a3.76,3.76,0,0,0-1.06-.26,1.92,1.92,0,0,0-1,.53,5.65,5.65,0,0,0-2.77,4.73c0,3.19,2.45,5.75,6.28,5.75S91.89,51.21,91.89,48ZM79.13,26.22c0,4.15,2.6,9.52,7,9.52,2.66,0,3.62-2.24,3.62-4.84,0-4.15-2.93-9.47-7-9.47C80.08,21.43,79.13,23.72,79.13,26.22Z" transform="translate(-0.74 -4.52)"/><path class="cls-2" d="M115.24,38c0,1.76.16,4.1,2.39,4.36a.89.89,0,0,1,.74,1,.91.91,0,0,1-1,1h-14c-.48,0-.8-.32-.85-.9a1.09,1.09,0,0,1,.79-1.07c2.56-.74,2.93-3.56,3-5.85l.75-22c0-2-1-3-3.51-3a1.1,1.1,0,0,1-.54-1,1.16,1.16,0,0,1,1.17-1.17A23,23,0,0,0,111.3,6.6a5.23,5.23,0,0,1,2.66-1,3.39,3.39,0,0,1,2.23.8Z" transform="translate(-0.74 -4.52)"/><path class="cls-2" d="M125.82,26.43c0-2.07-1.17-3-3.72-3a1.12,1.12,0,0,1-.54-1,1.25,1.25,0,0,1,1.17-1.27,24.25,24.25,0,0,0,7.5-2.71,5.21,5.21,0,0,1,2.61-.85,3.29,3.29,0,0,1,2.23.79l-.69,19.52c0,1.81.16,3.93,2.45,4.41a.87.87,0,0,1,.74,1,1,1,0,0,1-1,1H122.52a.82.82,0,0,1-.8-.9,1.1,1.1,0,0,1,.75-1.07c2.55-.69,2.92-2.92,3-5.9ZM135.6,9c0,3.3-2.07,5.16-5.31,5.16-3.41,0-4.84-1.81-4.84-4.47,0-3.35,2-5.16,5.26-5.16C134.11,4.52,135.6,6.28,135.6,9Z" transform="translate(-0.74 -4.52)"/><path class="cls-2" d="M162.35,23.45c0,1.17-.21,2.61-.26,3.73,0,.48-.32.74-.86.74a.92.92,0,0,1-.74-.53,12.7,12.7,0,0,0-10-5.58c-1.8,0-2.92.79-2.92,2,0,1.65,3.24,2.6,6.17,3.51,3.67,1.17,7.07,2.5,8.51,5.47a7.69,7.69,0,0,1,.58,3.09,6.72,6.72,0,0,1-1.22,4c-2.34,3.4-7.45,5-12.07,5-7-.06-8.3-2.66-8.3-6.65a26.23,26.23,0,0,1,.16-3.46.75.75,0,0,1,.85-.74.8.8,0,0,1,.75.43,14.33,14.33,0,0,0,11.37,6.38c1.76,0,2.82-.75,2.82-2,0-1.86-2.92-2.77-6-3.72-3.51-1.12-7.07-2.56-8.5-5.59a7.58,7.58,0,0,1-.7-3.08,7.31,7.31,0,0,1,1.23-4c2.18-3.14,6.86-4.79,11.32-4.79C161.29,17.76,162.35,20.1,162.35,23.45Z" transform="translate(-0.74 -4.52)"/><path class="cls-2" d="M195.91,27.34l-.38,9.94c0,3.08.43,4.47,2.4,5a1,1,0,0,1,.79,1,1,1,0,0,1-.95,1H183.68c-.48,0-.8-.32-.8-.9a1.08,1.08,0,0,1,.74-1.07c2.71-.85,2.82-3.14,2.93-5.85l.26-6.8c0-2.61-.26-6.07-3.93-6.07-4,0-4.63,4.15-4.73,8.14l-.22,6.17c0,2.6.48,3.88,2.18,4.41.48.21.8.48.8,1a1,1,0,0,1-1,1H166.07a.8.8,0,0,1-.85-.9,1.09,1.09,0,0,1,.8-1.07c2.5-.85,2.71-3.45,2.82-5.85l.74-22c0-2-1-3-3.51-3a1.07,1.07,0,0,1-.47-1,1.14,1.14,0,0,1,1.11-1.17,23.07,23.07,0,0,0,7.23-2.66,5.13,5.13,0,0,1,2.66-1,2.86,2.86,0,0,1,2.13.8l-.43,13.08A34.18,34.18,0,0,1,178,24c0,.11,0,.16.1.16a.11.11,0,0,0,.11-.11,10.27,10.27,0,0,1,9.25-6.33C193.57,17.76,195.91,21.7,195.91,27.34Z" transform="translate(-0.74 -4.52)"/><path class="cls-2" d="M226.54,18.67,226.22,24c0,.16.05.21.11.21s.1-.05.16-.16c1.7-3.29,5.47-6.48,8.18-6.48,2,0,2.29,2.65,2.29,6.7,0,2.07-.37,4.14-1.91,4.14a3.94,3.94,0,0,1-2-.63c-1.33-.64-2.88-1.87-4.36-1.87s-2.24,1.55-2.29,3.19l-.27,7.45c0,3.46,1.81,5,5.91,5.74a1,1,0,0,1,.74,1,1,1,0,0,1-1,1H214a.82.82,0,0,1-.85-.9,1,1,0,0,1,.8-1.07c2.92-.74,3.08-3.35,3.14-5.9l.32-9.73c0-2-.86-3-3.41-3a1.23,1.23,0,0,1-.48-1,1.27,1.27,0,0,1,1.23-1.28,22.72,22.72,0,0,0,7.17-2.6,4.77,4.77,0,0,1,2.61-1A2.73,2.73,0,0,1,226.54,18.67Z" transform="translate(-0.74 -4.52)"/><path class="cls-2" d="M269.08,30c0,7.28-5.48,14.88-16.11,14.88-9.25,0-13.3-5.69-13.3-12,0-7.29,5.59-15.1,16.12-15.1C264.88,17.82,269.08,23.72,269.08,30Zm-21.22-1.49c0,5.42,3.67,12.28,8.51,12.28,3.09,0,4.42-2.66,4.42-5.9,0-5.53-3.41-13-8.46-13C249,21.91,247.86,24.94,247.86,28.51Z" transform="translate(-0.74 -4.52)"/><path class="cls-2" d="M293.7,23.45c0,1.17-.21,2.61-.26,3.73,0,.48-.32.74-.85.74a.92.92,0,0,1-.75-.53,12.7,12.7,0,0,0-10-5.58c-1.8,0-2.92.79-2.92,2,0,1.65,3.24,2.6,6.17,3.51,3.67,1.17,7.07,2.5,8.51,5.47a7.69,7.69,0,0,1,.58,3.09,6.72,6.72,0,0,1-1.22,4c-2.34,3.4-7.45,5-12.07,5-7-.06-8.3-2.66-8.3-6.65a26.23,26.23,0,0,1,.16-3.46.75.75,0,0,1,.85-.74.8.8,0,0,1,.75.43,14.33,14.33,0,0,0,11.38,6.38c1.75,0,2.81-.75,2.81-2,0-1.86-2.92-2.77-6-3.72-3.51-1.12-7.08-2.56-8.51-5.59a7.57,7.57,0,0,1-.69-3.08,7.3,7.3,0,0,1,1.22-4c2.18-3.14,6.86-4.79,11.33-4.79C292.64,17.76,293.7,20.1,293.7,23.45Z" transform="translate(-0.74 -4.52)"/><path class="cls-2" d="M324.17,25.9c0,1.92-1.06,3.62-3.82,4.25A111.8,111.8,0,0,1,306,32.07c-.21,0-.32.11-.32.37a7.37,7.37,0,0,0,1.17,2.39,10.05,10.05,0,0,0,8.29,3.83,11.88,11.88,0,0,0,7.93-3,.86.86,0,0,1,.69-.32.78.78,0,0,1,.8.75,1.17,1.17,0,0,1-.06.42c-2,5.11-7.71,8.46-13.72,8.46-7.18-.06-12.92-4.58-12.92-12.23,0-8.78,7.18-14.95,15.58-14.95C320,17.76,324.17,21.59,324.17,25.9Zm-19.46,2.55a2.71,2.71,0,0,0,.11.85c.05.22.16.38.42.38,1.28,0,10.8-1.71,10.8-2.29,0-1.33-1.76-5.42-5.9-5.42C306.57,22,304.71,25,304.71,28.45Z" transform="translate(-0.74 -4.52)"/></g></g></svg>